<svg xmlns="http://www.w3.org/2000/svg" viewBox="0 0 296 257" width="296" height="257">
  <defs>
    <filter id="pencil" x="-10%" y="-10%" width="120%" height="120%">
      <feTurbulence type="fractalNoise" baseFrequency="0.018" numOctaves="2" seed="5" result="warp"/>
      <feDisplacementMap in="SourceGraphic" in2="warp" scale="5" result="rough"/>
      <feTurbulence type="fractalNoise" baseFrequency="0.9" numOctaves="2" seed="19" result="grain"/>
      <feDisplacementMap in="rough" in2="grain" scale="1.15"/>
    </filter>
  </defs>
  <g fill="#fbfaf6" stroke="#45403a" stroke-width="2.4" stroke-linecap="round" stroke-linejoin="round" filter="url(#pencil)">
    <path d="M27 128 C5 119 3 91 20 77 C16 52 38 31 62 34 C73 12 101 5 120 19 C139 -2 173 1 187 22 C210 11 237 25 239 49 C266 48 282 72 272 95 C294 109 295 139 275 153 C281 179 258 201 233 196 C221 219 191 225 172 209 C153 226 122 222 110 199 C84 209 59 193 57 169 C33 168 18 147 27 128 Z"/>
    <path d="M165 199 C169 216 181 223 184 242 C185 250 176 256 169 251 C160 244 159 225 149 207"/>
    <path d="M175 210 C189 226 215 231 229 214 C235 208 237 201 233 196 C217 201 194 203 175 199"/>
    <path d="M177 207 C192 217 213 220 227 210 M180 214 C193 223 211 225 223 217 M184 222 C195 229 208 230 217 225"/>
  </g>
  <g fill="none" stroke="#45403a" stroke-width="2.4" stroke-linecap="round" stroke-linejoin="round" filter="url(#pencil)">
    <path d="M61 37 C49 49 51 62 62 69 M95 20 C82 30 82 43 91 52 M132 17 C119 27 118 43 125 53 M169 17 C156 29 158 44 169 52 M205 27 C191 36 190 50 199 60 M239 50 C222 54 217 68 224 80 M270 92 C254 87 242 98 242 111 M275 151 C259 142 245 150 242 164 M231 195 C217 181 201 189 197 202 M172 208 C157 190 138 192 128 204 M109 198 C103 181 84 177 71 187 M57 168 C70 154 64 137 48 132 M25 128 C40 120 42 103 31 92 M20 76 C35 82 46 74 47 60"/>
    <path d="M73 74 C60 68 51 82 58 93 M76 72 C90 60 108 68 104 84 C101 97 86 95 83 108 M115 57 C105 47 98 58 101 68 M125 54 C142 43 157 52 155 69 C153 81 140 83 138 95 M170 53 C185 42 202 51 200 68 C198 79 187 82 185 94 M215 78 C205 69 195 77 198 89 M226 85 C241 76 254 88 249 103 C245 115 230 113 226 126 M56 108 C69 99 82 107 79 121 C77 131 66 133 64 143 M93 111 C107 98 127 107 124 125 C122 139 105 140 102 153 M142 99 C153 86 172 93 171 110 C170 124 154 127 151 141 M190 99 C204 88 219 98 216 113 C214 126 199 128 196 142 M238 130 C226 120 215 129 218 143 M71 148 C84 137 100 145 98 161 C96 173 82 175 78 187 M119 151 C132 138 151 147 148 164 C146 177 131 179 126 192 M165 145 C180 132 198 142 195 159 C193 173 176 174 172 189 M205 151 C218 139 235 149 232 166 C230 179 215 181 208 193"/>
  </g>
</svg>
